<?xml version="1.0" encoding="UTF-8" standalone="no"?>
<svg
   id="Layer_1"
   version="1.1"
   viewBox="0 0 515.34 673.26"
   sodipodi:docname="hypr-lens.svg"
   inkscape:version="1.4.2 (ebf0e940d0, 2025-05-08)"
   xmlns:inkscape="http://www.inkscape.org/namespaces/inkscape"
   xmlns:sodipodi="http://sodipodi.sourceforge.net/DTD/sodipodi-0.dtd"
   xmlns:xlink="http://www.w3.org/1999/xlink"
   xmlns="http://www.w3.org/2000/svg"
   xmlns:svg="http://www.w3.org/2000/svg">
  <sodipodi:namedview
     id="namedview22"
     pagecolor="#505050"
     bordercolor="#ffffff"
     borderopacity="1"
     inkscape:showpageshadow="0"
     inkscape:pageopacity="0"
     inkscape:pagecheckerboard="1"
     inkscape:deskcolor="#505050"
     inkscape:zoom="1.701789"
     inkscape:cx="257.96382"
     inkscape:cy="336.70449"
     inkscape:window-width="1717"
     inkscape:window-height="1373"
     inkscape:window-x="0"
     inkscape:window-y="0"
     inkscape:window-maximized="1"
     inkscape:current-layer="Layer_1" />
  <!-- Generator: Adobe Illustrator 30.0.0, SVG Export Plug-In . SVG Version: 2.1.1 Build 123)  -->
  <defs
     id="defs15">
    <style
       id="style1">
      .st0 {
        fill: url(#linear-gradient2);
      }

      .st1 {
        fill: url(#linear-gradient1);
      }

      .st2 {
        fill: url(#radial-gradient);
      }

      .st3 {
        fill: url(#radial-gradient1);
      }

      .st4 {
        isolation: isolate;
      }

      .st5 {
        opacity: .65;
      }

      .st6 {
        fill: url(#linear-gradient4);
      }

      .st7 {
        fill: url(#linear-gradient3);
      }

      .st8 {
        mix-blend-mode: difference;
      }

      .st9 {
        fill: url(#linear-gradient);
      }
    </style>
    <linearGradient
       id="linear-gradient"
       x1="8.93"
       y1="103.62"
       x2="572.68"
       y2="573.92"
       gradientTransform="translate(0 676) scale(1 -1)"
       gradientUnits="userSpaceOnUse">
      <stop
         offset="0"
         stop-color="#00a2f8"
         id="stop1" />
      <stop
         offset="1"
         stop-color="#00e5cf"
         id="stop2" />
    </linearGradient>
    <linearGradient
       id="linear-gradient1"
       x1="134.84"
       y1="522.02"
       x2="428.74"
       y2="276.83"
       gradientTransform="matrix(1,0,0,1,0,0)"
       xlink:href="#linear-gradient" />
    <linearGradient
       id="linear-gradient2"
       x1="178.38"
       y1="339.76"
       x2="294.51"
       y2="455.89"
       gradientUnits="userSpaceOnUse">
      <stop
         offset="0"
         stop-color="#00a2f8"
         id="stop3" />
      <stop
         offset=".56"
         stop-color="#00e5cf"
         stop-opacity="0"
         id="stop4" />
    </linearGradient>
    <radialGradient
       id="radial-gradient"
       cx="240.68"
       cy="402.06"
       fx="240.68"
       fy="402.06"
       r="84.37"
       gradientUnits="userSpaceOnUse">
      <stop
         offset="0"
         stop-color="#fff"
         stop-opacity="0"
         id="stop5" />
      <stop
         offset=".08"
         stop-color="#fff"
         stop-opacity=".15"
         id="stop6" />
      <stop
         offset=".23"
         stop-color="#fff"
         stop-opacity=".4"
         id="stop7" />
      <stop
         offset=".37"
         stop-color="#fff"
         stop-opacity=".62"
         id="stop8" />
      <stop
         offset=".5"
         stop-color="#fff"
         stop-opacity=".78"
         id="stop9" />
      <stop
         offset=".62"
         stop-color="#fff"
         stop-opacity=".9"
         id="stop10" />
      <stop
         offset=".72"
         stop-color="#fff"
         stop-opacity=".97"
         id="stop11" />
      <stop
         offset=".79"
         stop-color="#fff"
         id="stop12" />
      <stop
         offset="1"
         stop-color="#fff"
         stop-opacity="0"
         id="stop13" />
    </radialGradient>
    <linearGradient
       id="linear-gradient3"
       x1="344.27"
       y1="502.49"
       x2="344.28"
       y2="502.5"
       xlink:href="#linear-gradient2" />
    <linearGradient
       id="linear-gradient4"
       x1="393.17"
       y1="550.98"
       x2="278.46"
       y2="436.27"
       gradientUnits="userSpaceOnUse">
      <stop
         offset=".19"
         stop-color="#00a2f8"
         id="stop14" />
      <stop
         offset=".87"
         stop-color="#00e5cf"
         stop-opacity="0"
         id="stop15" />
    </linearGradient>
    <radialGradient
       id="radial-gradient1"
       cx="281.3"
       cy="439.12"
       fx="281.3"
       fy="439.12"
       r="84.37"
       xlink:href="#radial-gradient" />
    <linearGradient
       inkscape:collect="always"
       xlink:href="#linear-gradient2"
       id="linearGradient29"
       gradientUnits="userSpaceOnUse"
       x1="178.38"
       y1="339.76"
       x2="294.51"
       y2="455.89" />
    <radialGradient
       inkscape:collect="always"
       xlink:href="#radial-gradient"
       id="radialGradient29"
       gradientUnits="userSpaceOnUse"
       cx="240.68"
       cy="402.06"
       fx="240.68"
       fy="402.06"
       r="84.37" />
  </defs>
  <g
     class="st4"
     id="g16">
    <g
       id="Layer_2">
      <g
         id="Layer_1-2">
        <g
           class="st8"
           id="g15">
          <path
             class="st9"
             d="M288.53,0c1.99,2.11,3.26,3.13,4.14,4.42,15.97,23.63,31.7,47.44,47.91,70.91,9.33,13.51,19.26,26.61,29.22,39.67,9.63,12.65,19.8,24.88,29.44,37.53,11.15,14.63,22.45,29.18,32.81,44.36,13.27,19.45,26.64,38.94,38.12,59.44,9.76,17.43,17.56,36.05,25.02,54.64,5.28,13.16,8.82,27.06,12.6,40.78,1.75,6.36,2.24,13.07,3.26,19.62,1.26,8.02,3.4,16.04,3.53,24.08.35,20.94,2.17,41.95-1.48,62.8-4.02,22.99-10.75,45-20.76,66.23-10.12,21.45-22.38,41.26-37.39,59.59-13.6,16.61-29.57,30.33-46.84,42.91-12.68,9.23-26.09,17.07-40.36,23.3-12.84,5.6-26.07,10.09-39.69,13.89-30.75,8.56-61.93,10.44-93.33,8.23-18.93-1.33-38.08-3.65-56.11-10.46-14.82-5.6-29.75-11.13-43.92-18.13-11.19-5.52-21.91-12.44-31.73-20.15-12.88-10.11-25.52-20.81-36.67-32.74-9.99-10.68-18.64-22.87-26.4-35.31-8.18-13.13-15.39-27.01-21.58-41.2-6.69-15.32-11.01-31.45-14.53-47.97-5.48-25.71-3.71-51.44-2.59-77.09.64-14.73,4.53-29.47,8.26-43.86,3.93-15.18,8.68-30.26,14.44-44.84,5.77-14.6,12.47-28.96,20.14-42.65,9.63-17.18,20.25-33.85,31.2-50.23,9.94-14.88,20.68-29.24,31.47-43.52,8.69-11.5,18.17-22.41,26.97-33.83,8.9-11.55,17.46-23.36,26.07-35.13,9.11-12.46,18.29-24.87,27.09-37.55,11.16-16.07,21.91-32.43,32.97-48.57,1.58-2.31,3.88-4.14,5.84-6.19.39.22.78.44,1.18.66.08,1.77.23,3.54.23,5.31,0,26.33.15,52.66-.17,78.99-.05,3.86-1.62,8.15-3.72,11.46-8.5,13.45-17.19,26.8-26.38,39.79-8.71,12.31-18.12,24.13-27.22,36.16-7.5,9.91-14.97,19.83-22.52,29.7-5.24,6.85-10.74,13.5-15.86,20.44-7.16,9.72-14.35,19.45-21.03,29.5-8.06,12.12-15.99,24.36-23.23,36.97-5.18,9.02-9.26,18.69-13.59,28.17-2.4,5.26-4.61,10.64-6.36,16.14-3.1,9.76-5.58,19.71-8.68,29.47-8.72,27.42-6.87,55.63-4.92,83.5.99,14.15,6.11,28.15,10.4,41.89,6.01,19.24,16.32,36.3,27.95,52.74,7.94,11.23,16.95,21.38,27.14,30.36,8.39,7.38,17.5,14.17,27.07,19.92,10.89,6.54,22.23,12.77,34.12,17.07,12.69,4.59,26.1,7.99,39.48,9.68,15.93,2.01,32.16,1.58,48.25,2.34,14.94.7,29.43-2.29,43.93-5.14,18.41-3.62,35.23-11.56,51.58-20.26,19.55-10.4,35.98-25.13,50.37-41.73,14.71-16.97,27.06-36.05,34.92-57,8.29-22.1,15.2-44.97,14.15-69.26-.57-13.13.15-26.34-1.06-39.39-.89-9.61-3.62-19.11-6.16-28.5-2.98-11.03-6.03-22.1-10.16-32.73-4.11-10.59-9.36-20.75-14.52-30.9-4.57-8.99-9.32-17.92-14.66-26.46-6.5-10.39-13.38-20.59-20.68-30.43-11.05-14.9-22.74-29.32-33.91-44.12-13.08-17.33-26.13-34.68-38.77-52.33-10.91-15.22-21.31-30.81-31.71-46.39-1.67-2.5-3-5.79-3.03-8.72-.23-28.49-.15-56.98-.13-85.47,0-.95.24-1.91.58-4.44v.03Z"
             id="path15" />
        </g>
      </g>
    </g>
  </g>
  <path
     class="st1"
     d="m 257.67,276.22 c -79.16,0 -143.32,64.17 -143.32,143.33 0,79.16 64.16,143.32 143.32,143.32 79.16,0 143.32,-64.17 143.32,-143.32 0,-79.15 -64.16,-143.33 -143.32,-143.33 z m 0,270.22 c -70.08,0 -126.91,-56.81 -126.91,-126.89 0,-70.08 56.82,-126.91 126.91,-126.91 70.09,0 126.91,56.82 126.91,126.91 0,70.09 -56.82,126.89 -126.91,126.89 z"
     id="path16"
     style="display:inline" />
  <path
     class="st0"
     d="M172.8,492.04c-15.84-19.34-25.33-44.07-25.33-71,0-61.96,50.24-112.19,112.2-112.19,26.93,0,51.65,9.49,70.99,25.32l-157.86,157.87Z"
     id="path17" />
  <g
     class="st5"
     id="g18">
    <path
       class="st2"
       d="M183.99,476.58c-.44-.47-.93-.94-1.46-1.45-.51-.5-1.11-1.09-1.59-1.62-.96-1.08-1.97-2.13-2.89-3.25-1.84-2.24-3.61-4.56-5.24-6.99-3.29-4.84-6.05-10.08-8.31-15.56-4.51-10.98-6.75-23-6.65-35.06.1-12.07,2.62-24.21,7.36-35.45,2.36-5.63,5.32-11.01,8.7-16.09,3.43-5.06,7.34-9.8,11.64-14.15,4.35-4.3,9.08-8.22,14.15-11.64,5.09-3.38,10.46-6.35,16.09-8.7,11.24-4.74,23.38-7.25,35.45-7.36,12.06-.1,24.08,2.14,35.06,6.64,5.48,2.25,10.72,5.01,15.57,8.3,2.43,1.63,4.75,3.39,6.99,5.24,1.12.92,2.17,1.93,3.25,2.89,1.06.98,2.06,2.02,3.07,3.04h0s-131.21,131.22-131.21,131.22ZM183.99,476.58l131.21-131.22h0s0,0,0,0l-3.69-2.22c-1.26-.69-2.47-1.42-3.75-2.06-2.51-1.33-5.04-2.6-7.64-3.68-5.18-2.21-10.46-4.03-15.83-5.35-10.73-2.68-21.75-3.46-32.52-2.43-10.76,1.06-21.23,3.9-30.87,8.45-4.81,2.28-9.45,4.92-13.78,8.01-4.35,3.05-8.45,6.46-12.19,10.24-3.77,3.74-7.19,7.83-10.23,12.19-3.08,4.33-5.73,8.97-8,13.78-4.55,9.64-7.38,20.11-8.44,30.86-1.04,10.77-.25,21.79,2.43,32.52,1.32,5.37,3.14,10.65,5.34,15.83,1.09,2.6,2.35,5.13,3.68,7.64.64,1.27,1.37,2.49,2.06,3.75l1.03,1.77c.35.62.75,1.27,1.18,1.92Z"
       id="path18" />
  </g>
  <g
     id="g22">
    <path
       class="st7"
       d="M344.27,502.49c.12-.09-.09.12,0,0h0Z"
       id="path19" />
    <path
       id="path20"
       class="st6"
       d="m 349.25977,349.25 c 0.01,0.68998 0.01,1.38034 0.01,2.07031 0,19.11967 -3.44167,37.43564 -9.73828,54.36328 1.65251,-1.45445 3.44138,-2.72086 5.38672,-3.72656 0.0469,-0.10368 0.0962,-0.20845 0.14648,-0.31445 1.28529,-2.34003 2.96638,-4.38274 5.35157,-5.67774 0.84187,-0.3855 1.63095,-0.68204 2.40234,-0.84375 0.94214,-1.43726 2.15033,-2.6596 3.64844,-3.62304 0.57217,-0.6952 1.35693,-1.21473 2.41601,-1.46485 -0.0974,-1.63605 -0.21231,-3.27767 -0.55078,-4.88476 -0.37763,-1.68951 -0.88851,-3.3536 -1.5293,-4.96094 -0.42161,-0.85212 -0.79084,-1.71244 -1.5039,-2.36719 -0.66039,-0.5072 -1.43935,-0.83526 -2.17774,-1.20703 -4.38388,-2.20723 -3.89972,-6.17663 -0.39062,-6.08203 0.64983,0.0175 1.40438,0.17453 2.25,0.50781 1.31033,0.51644 2.54875,1.18772 3.70898,1.98242 1.57122,1.17414 2.51724,2.82974 3.375,4.54883 0.86996,2.01774 1.50639,4.13733 1.99805,6.27735 0.23042,1.06031 0.38065,2.13296 0.48828,3.21093 1.51623,-0.38556 3.05164,-0.71398 4.57813,-1.06836 -4.28933,-13.5576 -11.08757,-25.99022 -19.86914,-36.74023 z m 1.99023,55.07617 -0.002,0.002 -0.002,0.002 v 0.002 l -0.002,0.002 c -0.0147,0.039 -0.0216,0.16834 0.0195,0.36133 0.0255,-0.2161 0.014,-0.33152 -0.002,-0.36133 l -0.002,-0.002 -0.002,-0.002 -0.002,-0.002 h -0.002 v -0.002 h -0.002 z m -1.35156,1.84375 c -0.0169,0.007 -0.032,0.0145 -0.0488,0.0215 0.002,0.0117 0.005,0.0231 0.008,0.0293 l 0.002,0.002 0.002,0.002 v 0.002 h 0.002 v 0.002 h 0.002 0.002 0.002 0.002 l 0.002,-0.002 h 0.002 l 0.002,-0.002 c 0.006,-0.006 0.0154,-0.019 0.0234,-0.0371 -1.3e-4,-0.006 -0.002,-0.0121 -0.002,-0.0176 z m -4.51367,3.71485 c -0.12823,0.0592 -0.18316,0.20407 -0.20118,0.375 0.0944,-0.15299 0.2036,-0.33596 0.20703,-0.36915 v -0.002 -0.002 -0.002 h -0.002 -0.002 z m 5.77734,1.35546 c -0.0393,0.007 -0.0794,0.0134 -0.11914,0.0195 -0.0101,0.0663 -0.0218,0.13165 -0.0352,0.19726 0.0509,-0.0725 0.1027,-0.14472 0.1543,-0.2168 z m 22.50195,21.14649 c -0.0554,0.20115 -0.11189,0.40232 -0.16797,0.60351 -0.17338,0.8316 -0.24409,1.67867 -0.3789,2.51758 -0.19983,0.84336 -0.34301,1.69508 -0.41211,2.5586 -0.13078,0.75224 -0.2426,1.50703 -0.35547,2.26171 0.50516,-2.62589 1.0154,-5.25025 1.31445,-7.9414 z m -1.31445,7.9414 c -0.16064,0.83505 -0.2422,1.69553 -0.41797,2.5254 0.0426,-0.20326 0.0822,-0.40641 0.11719,-0.61133 0.10895,-0.63676 0.20526,-1.27539 0.30078,-1.91407 z M 370.06055,450.5 c -0.12334,0.42572 -0.22946,0.85492 -0.32227,1.28906 0.1255,-0.4226 0.20164,-0.86444 0.32227,-1.28906 z m -14.57422,18.19141 c -0.007,0.003 -0.0202,0.0121 -0.0352,0.0254 -0.005,0.0394 -0.008,0.0715 -0.01,0.0957 0.0324,-0.0554 0.0512,-0.0966 0.0527,-0.11328 v -0.002 -0.002 -0.002 l -0.002,-0.002 h -0.002 -0.002 z M 281.9375,481.8418 c -0.22497,0.17855 -0.45123,0.35662 -0.67773,0.5332 0.0354,0.13225 0.0671,0.26331 0.0937,0.39453 0.41247,-0.0194 0.82419,-0.0324 1.23632,-0.0176 0.10467,0.004 0.20855,0.008 0.31446,0.0137 0.16935,-0.19571 0.33796,-0.39271 0.50976,-0.58593 -0.48078,-0.12739 -0.98068,-0.23003 -1.47656,-0.33789 z m -44.13672,19 c -14.09876,4.18896 -29.032,6.4375 -44.49023,6.4375 h -1.66993 c 10.57813,8.58882 22.74552,15.28985 35.99219,19.59179 -0.59209,-1.17054 -1.43413,-2.27954 -1.53711,-3.57226 -0.19267,-2.41861 1.05093,-4.12168 2.67188,-5.48242 -0.18364,-1.04 -0.0903,-2.11828 0.22851,-3.44336 0.19178,-0.79709 0.71985,-1.47253 1.08008,-2.20899 0.41596,-0.50159 0.79614,-1.0364 1.24805,-1.50586 1.62313,-1.6862 3.62239,-2.92888 5.70312,-4.01758 -0.25766,-1.15732 -0.25577,-2.41217 -0.01,-3.72265 0.18849,-0.53756 0.34083,-1.08825 0.5664,-1.61133 0.068,-0.15761 0.14026,-0.31215 0.2168,-0.46484 z m 87.46875,0.66015 v 0.002 h 0.002 v -0.002 z m 0,0.002 h -0.002 v 0.002 h -0.002 c -0.0843,0.10644 -0.15911,0.21802 -0.22656,0.33203 0.0745,-0.0914 0.13957,-0.1751 0.19336,-0.24805 0.009,-0.0208 0.0327,-0.0704 0.0371,-0.084 z" />
    <g
       class="st5"
       id="g21">
      <path
         id="path21"
         class="st3"
         d="m 338.00977,364.59961 -0.0195,0.01 -131.21093,131.2207 0.0742,0.0449 c -0.018,-0.0182 -0.0348,-0.0365 -0.0527,-0.0547 L 337.99414,364.61523 c 0.01,0.0103 0.0196,0.0211 0.0293,0.0312 -0.008,-0.012 -0.0155,-0.0251 -0.0234,-0.0371 z m 0.0137,0.0469 c 0.42098,0.63801 0.8127,1.27425 1.15625,1.88282 l 1.03125,1.77148 c 0.69,1.26 1.41859,2.48 2.05859,3.75 1.33,2.51 2.58969,5.03867 3.67969,7.63867 2.2,5.18 4.01984,10.46008 5.33984,15.83008 0.005,0.0217 0.0122,0.0447 0.0176,0.0664 0.51741,-0.20194 1.01801,-0.36135 1.51172,-0.46485 0.94214,-1.43726 2.15033,-2.6596 3.64844,-3.62304 0.0364,-0.0442 0.0732,-0.0881 0.11132,-0.13086 -2.08087,-4.71538 -4.54342,-9.23283 -7.4082,-13.44727 -1.63,-2.43 -3.40023,-4.75023 -5.24023,-6.99023 -0.92,-1.12 -1.93063,-2.17 -2.89063,-3.25 -0.48,-0.53 -1.07984,-1.11914 -1.58984,-1.61914 -0.51649,-0.497 -0.99452,-0.95602 -1.42578,-1.41407 z M 206.85352,495.875 c 0.9917,1.00253 1.97448,2.0218 3.01562,2.98438 1.08,0.95999 2.13,1.97062 3.25,2.89062 2.24,1.85 4.56022,3.61023 6.99024,5.24023 3.09165,2.09723 6.34108,3.97906 9.71093,5.65039 0.0895,-0.15706 0.17712,-0.31557 0.25586,-0.47656 0.41596,-0.50159 0.79614,-1.0364 1.24805,-1.50586 0.89077,-0.92538 1.89426,-1.71774 2.96289,-2.42382 -4.20161,-1.2038 -8.34547,-2.70365 -12.42773,-4.44532 -2.60001,-1.09 -5.12868,-2.34969 -7.63868,-3.67968 -1.28,-0.64002 -2.49,-1.3686 -3.75,-2.0586 z m 118.41601,5.62695 v 0.002 h 0.002 v -0.002 z m 0,0.002 h -0.002 v 0.002 h -0.002 c -0.0843,0.10644 -0.15911,0.21802 -0.22656,0.33203 0.0745,-0.0914 0.13957,-0.1751 0.19336,-0.24805 0.009,-0.0208 0.0327,-0.0704 0.0371,-0.084 z" />
    </g>
  </g>
  <g
     class="st5"
     id="g28"
     transform="rotate(180,259.065,420.445)">
    <g
       id="g29">
      <path
         class="st0"
         d="m 172.8,492.04 c -15.84,-19.34 -25.33,-44.07 -25.33,-71 0,-61.96 50.24,-112.19 112.2,-112.19 26.93,0 51.65,9.49 70.99,25.32 z"
         id="path29"
         style="fill:url(#linearGradient29)" />
    </g>
    <path
       class="st2"
       d="m 183.99,476.58 c -0.44,-0.47 -0.93,-0.94 -1.46,-1.45 -0.51,-0.5 -1.11,-1.09 -1.59,-1.62 -0.96,-1.08 -1.97,-2.13 -2.89,-3.25 -1.84,-2.24 -3.61,-4.56 -5.24,-6.99 -3.29,-4.84 -6.05,-10.08 -8.31,-15.56 -4.51,-10.98 -6.75,-23 -6.65,-35.06 0.1,-12.07 2.62,-24.21 7.36,-35.45 2.36,-5.63 5.32,-11.01 8.7,-16.09 3.43,-5.06 7.34,-9.8 11.64,-14.15 4.35,-4.3 9.08,-8.22 14.15,-11.64 5.09,-3.38 10.46,-6.35 16.09,-8.7 11.24,-4.74 23.38,-7.25 35.45,-7.36 12.06,-0.1 24.08,2.14 35.06,6.64 5.48,2.25 10.72,5.01 15.57,8.3 2.43,1.63 4.75,3.39 6.99,5.24 1.12,0.92 2.17,1.93 3.25,2.89 1.06,0.98 2.06,2.02 3.07,3.04 v 0 c 0,0 -131.21,131.22 -131.21,131.22 z m 0,0 131.21,-131.22 v 0 c 0,0 0,0 0,0 l -3.69,-2.22 c -1.26,-0.69 -2.47,-1.42 -3.75,-2.06 -2.51,-1.33 -5.04,-2.6 -7.64,-3.68 -5.18,-2.21 -10.46,-4.03 -15.83,-5.35 -10.73,-2.68 -21.75,-3.46 -32.52,-2.43 -10.76,1.06 -21.23,3.9 -30.87,8.45 -4.81,2.28 -9.45,4.92 -13.78,8.01 -4.35,3.05 -8.45,6.46 -12.19,10.24 -3.77,3.74 -7.19,7.83 -10.23,12.19 -3.08,4.33 -5.73,8.97 -8,13.78 -4.55,9.64 -7.38,20.11 -8.44,30.86 -1.04,10.77 -0.25,21.79 2.43,32.52 1.32,5.37 3.14,10.65 5.34,15.83 1.09,2.6 2.35,5.13 3.68,7.64 0.64,1.27 1.37,2.49 2.06,3.75 l 1.03,1.77 c 0.35,0.62 0.75,1.27 1.18,1.92 z"
       id="path28"
       style="fill:url(#radialGradient29)" />
  </g>
</svg>
